<?xml version="1.0" encoding="iso-8859-1"?>
<!-- Generator: Adobe Illustrator 29.4.0, SVG Export Plug-In . SVG Version: 9.03 Build 0)  -->
<svg version="1.1" id="Layer_1" xmlns="http://www.w3.org/2000/svg" xmlns:xlink="http://www.w3.org/1999/xlink" x="0px" y="0px"
	 viewBox="0 0 637.653 618.644" style="enable-background:new 0 0 637.653 618.644;" xml:space="preserve">
<path style="fill:#0C150B;" d="M478.019,36.6H152.49c-62.041,0-112.5,50.458-112.5,112.5v325.529c0,62.01,50.459,112.5,112.5,112.5
	h325.529c62.04,0,112.5-50.49,112.5-112.5V149.1C590.519,87.058,540.059,36.6,478.019,36.6z M435.049,147.966
	c25.204,0,45.637,20.433,45.637,45.639c0,25.204-20.433,45.637-45.637,45.637c-25.206,0-45.639-20.433-45.639-45.637
	C389.41,168.399,409.844,147.966,435.049,147.966z M545.514,474.638c0,37.2-30.27,67.5-67.5,67.5H152.484
	c-37.2,0-67.5-30.3-67.5-67.5v-54.3l156.541-156.57c4.2-4.23,9.93-6.601,15.899-6.601c5.971,0,11.701,2.37,15.93,6.601l103.5,103.5
	l41.911-41.88c4.23-4.23,9.93-6.601,15.899-6.601c5.971,0,11.701,2.37,15.93,6.601l94.92,94.919V474.638z"/>
</svg>
